<mxfile host="app.diagrams.net" modified="2020-05-01T16:59:53.969Z" agent="5.0 (Windows NT 10.0; Win64; x64) AppleWebKit/537.36 (KHTML, like Gecko) Chrome/81.0.4044.129 Safari/537.36" etag="-OeRk6HnYHptypn8d0tv" version="13.0.5" type="github">
  <diagram id="A-lRvXMCUyouXJSLUCNt" name="Page-1">
    <mxGraphModel dx="1038" dy="556" grid="1" gridSize="10" guides="1" tooltips="1" connect="1" arrows="1" fold="1" page="1" pageScale="1" pageWidth="827" pageHeight="1169" math="0" shadow="0">
      <root>
        <mxCell id="0" />
        <mxCell id="1" parent="0" />
        <mxCell id="0ghuIrE4dX-iRaHXYtQV-7" value="Direct" style="swimlane;html=1;childLayout=stackLayout;resizeParent=1;resizeParentMax=0;horizontal=0;startSize=20;horizontalStack=0;" vertex="1" parent="1">
          <mxGeometry x="100" y="60" width="560" height="360" as="geometry" />
        </mxCell>
        <mxCell id="0ghuIrE4dX-iRaHXYtQV-8" value="Spark" style="swimlane;html=1;startSize=20;horizontal=0;" vertex="1" parent="0ghuIrE4dX-iRaHXYtQV-7">
          <mxGeometry x="20" width="540" height="120" as="geometry" />
        </mxCell>
        <mxCell id="0ghuIrE4dX-iRaHXYtQV-5" value="Receiver" style="rounded=0;whiteSpace=wrap;html=1;" vertex="1" parent="0ghuIrE4dX-iRaHXYtQV-8">
          <mxGeometry x="400" y="30" width="120" height="60" as="geometry" />
        </mxCell>
        <mxCell id="0ghuIrE4dX-iRaHXYtQV-9" value="Kafka" style="swimlane;html=1;startSize=20;horizontal=0;" vertex="1" parent="0ghuIrE4dX-iRaHXYtQV-7">
          <mxGeometry x="20" y="120" width="540" height="120" as="geometry" />
        </mxCell>
        <mxCell id="0ghuIrE4dX-iRaHXYtQV-4" style="edgeStyle=orthogonalEdgeStyle;rounded=0;orthogonalLoop=1;jettySize=auto;html=1;entryX=0;entryY=0.5;entryDx=0;entryDy=0;" edge="1" parent="0ghuIrE4dX-iRaHXYtQV-9" source="0ghuIrE4dX-iRaHXYtQV-3" target="0ghuIrE4dX-iRaHXYtQV-2">
          <mxGeometry relative="1" as="geometry" />
        </mxCell>
        <mxCell id="0ghuIrE4dX-iRaHXYtQV-3" value="Topic" style="rounded=0;whiteSpace=wrap;html=1;" vertex="1" parent="0ghuIrE4dX-iRaHXYtQV-9">
          <mxGeometry x="150" y="50" width="120" height="60" as="geometry" />
        </mxCell>
        <mxCell id="0ghuIrE4dX-iRaHXYtQV-2" value="Consumer" style="rounded=0;whiteSpace=wrap;html=1;" vertex="1" parent="0ghuIrE4dX-iRaHXYtQV-9">
          <mxGeometry x="300" y="50" width="120" height="60" as="geometry" />
        </mxCell>
        <mxCell id="0ghuIrE4dX-iRaHXYtQV-10" value="Source" style="swimlane;html=1;startSize=20;horizontal=0;" vertex="1" parent="0ghuIrE4dX-iRaHXYtQV-7">
          <mxGeometry x="20" y="240" width="540" height="120" as="geometry" />
        </mxCell>
        <mxCell id="0ghuIrE4dX-iRaHXYtQV-15" value="" style="shape=note;whiteSpace=wrap;size=16;html=1;dropTarget=0;" vertex="1" parent="0ghuIrE4dX-iRaHXYtQV-10">
          <mxGeometry x="60" y="20" width="40" height="60" as="geometry" />
        </mxCell>
        <mxCell id="0ghuIrE4dX-iRaHXYtQV-16" value="" style="html=1;shape=singleArrow;arrowWidth=0.4;arrowSize=0.4;outlineConnect=0;" vertex="1" parent="0ghuIrE4dX-iRaHXYtQV-15">
          <mxGeometry width="14" height="14" relative="1" as="geometry">
            <mxPoint x="2" y="2" as="offset" />
          </mxGeometry>
        </mxCell>
        <mxCell id="0ghuIrE4dX-iRaHXYtQV-17" value="" style="html=1;whiteSpace=wrap;shape=parallelMarker;outlineConnect=0;" vertex="1" parent="0ghuIrE4dX-iRaHXYtQV-15">
          <mxGeometry x="0.5" y="1" width="14" height="14" relative="1" as="geometry">
            <mxPoint x="-7" y="-14" as="offset" />
          </mxGeometry>
        </mxCell>
        <mxCell id="0ghuIrE4dX-iRaHXYtQV-6" value="" style="edgeStyle=orthogonalEdgeStyle;rounded=0;orthogonalLoop=1;jettySize=auto;html=1;" edge="1" parent="0ghuIrE4dX-iRaHXYtQV-7" source="0ghuIrE4dX-iRaHXYtQV-2" target="0ghuIrE4dX-iRaHXYtQV-5">
          <mxGeometry relative="1" as="geometry" />
        </mxCell>
        <mxCell id="0ghuIrE4dX-iRaHXYtQV-18" style="edgeStyle=orthogonalEdgeStyle;rounded=0;orthogonalLoop=1;jettySize=auto;html=1;entryX=0;entryY=0.5;entryDx=0;entryDy=0;" edge="1" parent="0ghuIrE4dX-iRaHXYtQV-7" source="0ghuIrE4dX-iRaHXYtQV-15" target="0ghuIrE4dX-iRaHXYtQV-3">
          <mxGeometry relative="1" as="geometry" />
        </mxCell>
      </root>
    </mxGraphModel>
  </diagram>
</mxfile>
